<svg xmlns="http://www.w3.org/2000/svg" viewBox="0 0 763.93 758.47"><defs><style>.cls-1{fill:#265127;}.cls-2{fill:#0c351c;}.cls-3{fill:#00a79d;}.cls-4{fill:#262262;}.cls-5{fill:#f9c6d7;}.cls-6{fill:#f3ab5c;}.cls-7{fill:#231f20;}.cls-8{fill:#f2e05f;}.cls-9{fill:#fef8fb;}.cls-10{fill:#ee3331;}</style></defs><g id="tra"><polygon class="cls-1" points="754.19 740.06 501.89 322.09 531.13 312.34 754.19 740.06"/><polygon class="cls-2" points="545.74 286.36 553.14 293.57 754.19 740.06 531.13 312.34 545.74 286.36"/><polygon class="cls-1" points="272.33 334.54 0 725.98 240.93 317.76 272.33 334.54"/><polygon class="cls-2" points="216.38 305.85 0 725.98 240.93 317.76 244.9 299.71 216.38 305.85"/><path class="cls-3" d="M405.67,382.6l-5.95,55.22L318.5,602.41s-24.9,54.14-62.8,20-3-72.1-3-72.1L384,364.73Z" transform="translate(-14.77 -284.65)"/><path class="cls-3" d="M392.13,386.39l13.54,40.06,81.75,167.3s23.82,47.1,58.47,22.74,0-82.73,0-82.73Z" transform="translate(-14.77 -284.65)"/><path class="cls-4" d="M397.55,418.33s21.65,44.4,61.72,53.06,57.39,78,57.39,78-1.09,31.4,46.56,30.32l4.69-1.44L456.38,353Z" transform="translate(-14.77 -284.65)"/><path class="cls-4" d="M347,375,231.15,590.5s30.3,23.9,55.3-24.87A37.13,37.13,0,0,0,289.94,555c3.13-18.27,14.71-78.92,31.09-85.05,17.71-6.62,69.66-23.82,74.35-42.23s4.33-25.26,4.33-25.26Z" transform="translate(-14.77 -284.65)"/><circle class="cls-1" cx="394.28" cy="67.21" r="67.21"/><path class="cls-5" d="M395.58,377.69c-2.25,0-4.95-.1-6.25-.15l-.77,0-1,0c-1.35.05-3.62.14-4.91.14-.89,0-.94-.17-.94-.21s.12-.15.46-.15a9.39,9.39,0,0,0,1.82-.12c1.27-.26,1.54-2.28,1.76-3.9.3-2.54.29-7.21.29-13.13V349.54c0-9.43,0-11.13-.11-13.07-.1-1.77-.49-3.63-2.68-4a11.06,11.06,0,0,0-1.69-.12c-.63,0-.76-.08-.76-.15s.25-.21.94-.21c2,0,4.73.1,6,.15l.82,0,1,0c1.36-.05,3.63-.14,4.92-.14.68,0,.93.13.93.21s-.21.15-.63.15a7.61,7.61,0,0,0-1.58.12c-1.6.33-1.93,2.1-2,4s-.14,3.64-.14,13.07v10.64c0,5.92,0,10.59.32,13.13.18,1.76.54,3.65,2.39,3.9a20.74,20.74,0,0,0,2.61.12c.38,0,.51.08.51.15s-.06.21-1.29.21" transform="translate(-14.77 -284.65)"/><path class="cls-5" d="M394.49,332c-1.82,0-5.63.18-5.93.18s-4.11-.18-6.84-.18c-.68,0-.94.1-1,.22a10.49,10.49,0,0,1,5,.81,11.65,11.65,0,0,1,2.8,1.87,12.23,12.23,0,0,1,2.5-1.92c1.29-.76,2.26-.76,4.39-.76,0-.12-.33-.22-1-.22" transform="translate(-14.77 -284.65)"/><path class="cls-5" d="M391.19,376.79a9.78,9.78,0,0,1-2.63-1.93,11.75,11.75,0,0,1-2.48,1.92c-1.28.76-2.26.76-4.4.76.06.08.26.18.95.18,1.82,0,5.63-.18,5.93-.18s4.05.18,7,.18c1,0,1.23-.1,1.3-.18-3.08,0-4.33-.05-5.69-.75" transform="translate(-14.77 -284.65)"/><path class="cls-5" d="M396.36,377.3a20.75,20.75,0,0,1-2.6-.12c-1.29-.17-1.84-1.17-2.12-2.36a10.8,10.8,0,0,1-.24-1.51c-.3-2.54-.3-7.32-.3-13.13V349.54c0-9.44,0-11.13.12-13.07a11.72,11.72,0,0,1,.18-1.57c.25-1.27.76-2.14,1.82-2.36a7.47,7.47,0,0,1,1.57-.12c.36,0,.66-.06.66-.18v0c-2.13,0-3.1,0-4.39.76a12.23,12.23,0,0,0-2.5,1.92v40a9.78,9.78,0,0,0,2.63,1.93c1.36.7,2.61.75,5.69.75a.09.09,0,0,0,0-.06c0-.06-.06-.18-.55-.18" transform="translate(-14.77 -284.65)"/><path class="cls-5" d="M385.76,333a10.49,10.49,0,0,0-5-.81v0c0,.12.24.18.78.18a11.1,11.1,0,0,1,1.7.12,2.8,2.8,0,0,1,2.44,2.36,9.28,9.28,0,0,1,.22,1.57c.12,1.94.12,3.63.12,13.07v10.64c0,5.81,0,10.59-.3,13.13-.07.51-.15,1-.25,1.51-.25,1.19-.65,2.19-1.51,2.36a9.18,9.18,0,0,1-1.81.12c-.43,0-.49.12-.49.18a.14.14,0,0,0,0,.06c2.14,0,3.12,0,4.4-.76a11.75,11.75,0,0,0,2.48-1.92v-40a11.65,11.65,0,0,0-2.8-1.87" transform="translate(-14.77 -284.65)"/><path class="cls-5" d="M391.4,373.31c-.3-2.54-.3-7.32-.3-13.13V349.54c0-9.44,0-11.13.12-13.07a11.72,11.72,0,0,1,.18-1.57,3.06,3.06,0,0,1,1-2l-.37-.37a5.51,5.51,0,0,0-1,.46,12.23,12.23,0,0,0-2.5,1.92v38.9h2.9l-.06-.49" transform="translate(-14.77 -284.65)"/><path class="cls-5" d="M388.56,335.06h-2.84a9.85,9.85,0,0,1,.18,1.41c.12,1.94.12,3.63.12,13.07v10.64c0,5.81,0,10.59-.3,13.13a2.54,2.54,0,0,0,0,.29h2.88V335.06" transform="translate(-14.77 -284.65)"/><path class="cls-5" d="M393.22,332.54a7.47,7.47,0,0,1,1.57-.12c.36,0,.66-.06.66-.18v0a10.64,10.64,0,0,0-3.39.3l.37.37a1.84,1.84,0,0,1,.79-.35" transform="translate(-14.77 -284.65)"/><path class="cls-5" d="M396.36,377.3a20.75,20.75,0,0,1-2.6-.12c-1.29-.17-1.84-1.17-2.12-2.36a8.35,8.35,0,0,1-.18-1h-2.9v1.06a9.78,9.78,0,0,0,2.63,1.93c1.36.7,2.61.75,5.69.75a.09.09,0,0,0,0-.06c0-.06-.06-.18-.55-.18" transform="translate(-14.77 -284.65)"/><path class="cls-5" d="M394.49,332c-1.82,0-5.63.18-5.93.18s-4.11-.18-6.84-.18c-.68,0-.94.1-1,.22a10.49,10.49,0,0,1,5,.81,11.65,11.65,0,0,1,2.8,1.87,12.23,12.23,0,0,1,2.5-1.92c1.29-.76,2.26-.76,4.39-.76,0-.12-.33-.22-1-.22" transform="translate(-14.77 -284.65)"/><path class="cls-5" d="M391.19,376.79a9.78,9.78,0,0,1-2.63-1.93,11.75,11.75,0,0,1-2.48,1.92c-1.28.76-2.26.76-4.4.76.06.08.26.18.95.18,1.82,0,5.63-.18,5.93-.18s4.05.18,7,.18c1,0,1.23-.1,1.3-.18-3.08,0-4.33-.05-5.69-.75" transform="translate(-14.77 -284.65)"/><path class="cls-5" d="M388.56,334.9a11.65,11.65,0,0,0-2.8-1.87,10.49,10.49,0,0,0-5-.81v0c0,.12.24.18.78.18a11.1,11.1,0,0,1,1.7.12,2.8,2.8,0,0,1,2.44,2.36,1.24,1.24,0,0,0,0,.16h2.84v-.16" transform="translate(-14.77 -284.65)"/><path class="cls-5" d="M396.36,377.3a20.75,20.75,0,0,1-2.6-.12c-1.29-.17-1.84-1.17-2.12-2.36a10.8,10.8,0,0,1-.24-1.51c-.3-2.54-.3-7.32-.3-13.13V349.54c0-9.44,0-11.13.12-13.07a11.72,11.72,0,0,1,.18-1.57c.25-1.27.76-2.14,1.82-2.36a7.47,7.47,0,0,1,1.57-.12c.36,0,.66-.06.66-.18v0c-2.13,0-3.1,0-4.39.76a12.23,12.23,0,0,0-2.5,1.92v40a9.78,9.78,0,0,0,2.63,1.93c1.36.7,2.61.75,5.69.75a.09.09,0,0,0,0-.06c0-.06-.06-.18-.55-.18" transform="translate(-14.77 -284.65)"/><path class="cls-5" d="M385.76,333a10.49,10.49,0,0,0-5-.81v0c0,.12.24.18.78.18a11.1,11.1,0,0,1,1.7.12,2.8,2.8,0,0,1,2.44,2.36,9.28,9.28,0,0,1,.22,1.57c.12,1.94.12,3.63.12,13.07v10.64c0,5.81,0,10.59-.3,13.13-.07.51-.15,1-.25,1.51-.25,1.19-.65,2.19-1.51,2.36a9.18,9.18,0,0,1-1.81.12c-.43,0-.49.12-.49.18a.14.14,0,0,0,0,.06c2.14,0,3.12,0,4.4-.76a11.75,11.75,0,0,0,2.48-1.92v-40a11.65,11.65,0,0,0-2.8-1.87" transform="translate(-14.77 -284.65)"/><path class="cls-5" d="M424.43,378.6c-.6,0-1-1-2.15-3.79l-14.82-37.08c-1.29-3.29-2.27-4.91-4.32-5.22a16.16,16.16,0,0,0-2.24-.12c-.38,0-.58-.05-.58-.15s.18-.21,1-.21c1,0,3.2.06,5,.11l2.46.07,1.44,0c1.32-.05,3.32-.13,4.79-.13.72,0,.88.17.88.21s-.15.15-.58.15a12.94,12.94,0,0,0-2.06.12,1.22,1.22,0,0,0-.9.58c-.55,1,.19,2.89.84,4.57.08.2.15.39.22.58l12.34,32.11s0,0,0,0h0c3.66-8.46,11.65-29.49,12.94-33.58l.12-.35c.35-1.06.78-2.39.32-3.21a1.49,1.49,0,0,0-1-.71,12.82,12.82,0,0,0-2.06-.12c-.42,0-.57-.08-.57-.15s.16-.21.87-.21c1.43,0,3.32.07,4.69.12l1.66.06,1,0c1-.05,2.64-.13,3.75-.13.83,0,1,.17,1,.21s-.19.15-.57.15a9.94,9.94,0,0,0-1.34.06,4,4,0,0,0-2.78,2,26.57,26.57,0,0,0-2.26,4.8c-.51,1.3-2.44,5.94-4.67,11.31-.68,1.64-1.39,3.36-2.11,5.08l-.49,1.18c-3.47,8.31-6,14.32-7.31,17.15-.31.67-.58,1.25-.81,1.76-1,2.15-1.33,2.88-1.7,2.88" transform="translate(-14.77 -284.65)"/><path class="cls-5" d="M406.34,333.05a22.16,22.16,0,0,1,3,1.85,11.4,11.4,0,0,1,2.13-2c1.21-.82,3.54-.63,4.42-.62h0c0-.06-.18-.24-.91-.24-2.24,0-5.62.18-6.23.18S403,332,401.32,332c-.85,0-1,.18-1,.24h0a13.9,13.9,0,0,1,6,.81" transform="translate(-14.77 -284.65)"/><path class="cls-5" d="M424.4,373.75l-15-38.85a22.16,22.16,0,0,0-3-1.85,13.75,13.75,0,0,0-6-.81c0,.12.19.18.61.18a16.08,16.08,0,0,1,2.24.12c2,.3,3,1.81,4.29,5.2l14.82,37.08c1.11,2.81,1.54,3.75,2.12,3.81,0-.13.06-4.13,0-4.88" transform="translate(-14.77 -284.65)"/><path class="cls-5" d="M439.55,332.72a12.58,12.58,0,0,1,2,1.76,17.56,17.56,0,0,1,4-2.08,9.14,9.14,0,0,1,2.9-.16c0-.06-.18-.24-1-.24-1.63,0-4.35.18-4.72.18-.72,0-4.11-.18-6.35-.18-.72,0-.9.18-.9.24.48,0,3.09-.16,4.05.47" transform="translate(-14.77 -284.65)"/><path class="cls-5" d="M426,373.12l-.19-2.78-12.34-32.11c-.85-2.24-2.24-5.33-.18-5.69a12.82,12.82,0,0,1,2.05-.12c.37,0,.61-.06.61-.18v0c-1.14,0-3.11-.22-4.41.64a11.07,11.07,0,0,0-2.13,2l15,38.85a1.86,1.86,0,0,0,1.55-.63" transform="translate(-14.77 -284.65)"/><path class="cls-5" d="M445.6,332.4a17.56,17.56,0,0,0-4,2.08C439.67,340.25,429,365.9,429,365.9s-3,7.07-3.06,7.22a1.86,1.86,0,0,1-1.55.63c0,.75,0,4.75,0,4.88h.06c.48,0,.84-1,2.54-4.66,1.39-3,4.11-9.49,7.8-18.32,3.09-7.44,6.11-14.7,6.77-16.4,1.64-4.11,2.73-6.41,5-6.77a9.79,9.79,0,0,1,1.33-.06c.42,0,.6-.06.6-.18a9.14,9.14,0,0,0-2.9.16" transform="translate(-14.77 -284.65)"/><path class="cls-5" d="M439.55,332.72c-1-.64-3.57-.51-4.05-.48,0,.12.24.18.6.18a13,13,0,0,1,2.06.12c1.93.48,1,2.72.54,4.23-1.33,4.24-9.43,25.47-12.94,33.57l.19,2.78C426,373,429,365.9,429,365.9s10.66-25.65,12.58-31.42a13,13,0,0,0-2-1.76" transform="translate(-14.77 -284.65)"/><path class="cls-5" d="M424.4,373.75l-15-38.66-2.76.82c.25.54.5,1.15.77,1.83l14.7,36.78,2.27-.77h0" transform="translate(-14.77 -284.65)"/><path class="cls-5" d="M425.76,370.34l-12.34-32.11a20.46,20.46,0,0,1-1.21-3.73l-1.71-.83a10.38,10.38,0,0,0-1.15,1.23l15,38.85a1.83,1.83,0,0,0,1.55-.63l-.19-2.78" transform="translate(-14.77 -284.65)"/><path class="cls-5" d="M409.35,334.9a22.16,22.16,0,0,0-3-1.85,13.75,13.75,0,0,0-6-.81c0,.12.19.18.61.18a16.08,16.08,0,0,1,2.24.12c1.59.24,2.53,1.25,3.52,3.37l2.76-.82-.07-.19" transform="translate(-14.77 -284.65)"/><path class="cls-5" d="M413.24,332.54a12.82,12.82,0,0,1,2.05-.12c.37,0,.61-.06.61-.18v0c-1.14,0-3.11-.22-4.41.64a7.43,7.43,0,0,0-1,.81l1.71.83c-.15-1,.05-1.79,1-2" transform="translate(-14.77 -284.65)"/><path class="cls-5" d="M406.34,333.05a22.16,22.16,0,0,1,3,1.85,11.4,11.4,0,0,1,2.13-2c1.21-.82,3.54-.63,4.42-.62h0c0-.06-.18-.24-.91-.24-2.24,0-5.62.18-6.23.18S403,332,401.32,332c-.85,0-1,.18-1,.24h0a13.9,13.9,0,0,1,6,.81" transform="translate(-14.77 -284.65)"/><path class="cls-5" d="M439.55,332.72a12.58,12.58,0,0,1,2,1.76,17.56,17.56,0,0,1,4-2.08,9.14,9.14,0,0,1,2.9-.16c0-.06-.18-.24-1-.24-1.63,0-4.35.18-4.72.18-.72,0-4.11-.18-6.35-.18-.72,0-.9.18-.9.24.48,0,3.09-.16,4.05.47" transform="translate(-14.77 -284.65)"/><path class="cls-5" d="M441.59,334.48a12.58,12.58,0,0,0-2-1.76c-1-.64-3.57-.51-4.05-.48,0,.12.24.18.6.18a13,13,0,0,1,2.06.12,1.49,1.49,0,0,1,1.18,1.74l2.22.3,0-.1" transform="translate(-14.77 -284.65)"/><path class="cls-5" d="M445.6,332.4a14.51,14.51,0,0,0-2.92,1.39h1.64a3.62,3.62,0,0,1,2.25-1.31,9.79,9.79,0,0,1,1.33-.06c.42,0,.6-.06.6-.18a9.14,9.14,0,0,0-2.9.16" transform="translate(-14.77 -284.65)"/><path class="cls-5" d="M425.76,370.34l.19,2.78c0-.07.72-1.67,1.43-3.35l-1-1-.65,1.53" transform="translate(-14.77 -284.65)"/><path class="cls-5" d="M426,373.12l-.19-2.78-12.34-32.11c-.85-2.24-2.24-5.33-.18-5.69a12.82,12.82,0,0,1,2.05-.12c.37,0,.61-.06.61-.18v0c-1.14,0-3.11-.22-4.41.64a11.07,11.07,0,0,0-2.13,2l15,38.85a1.86,1.86,0,0,0,1.55-.63" transform="translate(-14.77 -284.65)"/><path class="cls-5" d="M441.59,334.48C439.67,340.25,429,365.9,429,365.9s-3,7.07-3.06,7.22a1.86,1.86,0,0,1-1.55.63c0,.75,0,4.75,0,4.88h.06c.48,0,.84-1,2.54-4.66,1.39-3,4.11-9.49,7.8-18.32,3.08-7.44,6.11-14.7,6.77-16.4a20.08,20.08,0,0,1,2.78-5.46h-1.64c-.39.23-.76.46-1.09.69" transform="translate(-14.77 -284.65)"/><path class="cls-5" d="M424.4,373.75l-15-38.85a22.16,22.16,0,0,0-3-1.85,13.75,13.75,0,0,0-6-.81c0,.12.19.18.61.18a16.08,16.08,0,0,1,2.24.12c2,.3,3,1.81,4.29,5.2l14.82,37.08c1.11,2.81,1.54,3.75,2.12,3.81,0-.13.06-4.13,0-4.88" transform="translate(-14.77 -284.65)"/><path class="cls-5" d="M439.55,332.72c-1-.64-3.57-.51-4.05-.48,0,.12.24.18.6.18a13,13,0,0,1,2.06.12c1.93.48,1,2.72.54,4.23-1.33,4.24-9.43,25.47-12.94,33.57l.19,2.78C426,373,429,365.9,429,365.9s10.66-25.65,12.58-31.42a12.58,12.58,0,0,0-2-1.76" transform="translate(-14.77 -284.65)"/></g><g id="ibwo"><polygon class="cls-6" points="189.31 371.9 357.51 336.53 377.36 364.5 367.26 384.17 189.31 380.56 194.01 376.23 189.31 371.9"/><path class="cls-7" d="M350.26,623.48s34.65,15.75,34.65,23-4,9.75-4,9.75L318.14,667s-20.21,1.08,62.08,10.47c0,0,24.91,5-4.33,15.15s-57.39,56-57.39,56-34.65,26-17,93.12L395,935.56,502.58,831.61s1.44-40.79-63.53-75.08c0,0-11.91-6.13,9-18L473,701.67l-4-80.49,16.61-22.74s-22.36-22-86.07-10.11C399.55,588.33,368.67,593.66,350.26,623.48Z" transform="translate(-14.77 -284.65)"/><circle class="cls-8" cx="398.78" cy="354.03" r="10.47"/><path class="cls-9" d="M412,664.13s25.64,21.3,59.38,4.69-6,44.4-6,44.4S446.27,735.6,442.66,736s-29.59-.36-12.27,22.38,62.44,58.83,65,74-13,11.91-13,11.91-23.46-48-72.91-69.3l-39.71-9.39,9-11.22s.72,5.45,23.64-14.4l43.85-32.13s22.38-13-4-24.18S412,664.13,412,664.13Z" transform="translate(-14.77 -284.65)"/><path class="cls-10" d="M417.76,617.93s72.91,33.21,47.64,95.29c0,0,32.17-14.61,28.88-64.07,0,0,34.65-28.78,59.19-25.67,0,0-17.86-28.65-74.44-30C479,593.48,498.34,608.55,417.76,617.93Z" transform="translate(-14.77 -284.65)"/><circle class="cls-7" cx="398.78" cy="354.03" r="4.06"/><path class="cls-4" d="M666.09,656.55,397.55,916.43,146.33,643.56s-14.08,17.32-52,0-68.22,0-68.22,0l371.41,399.56L778.7,654.38s-7.58-20.57-54.14-2.16S666.09,656.55,666.09,656.55Z" transform="translate(-14.77 -284.65)"/></g></svg>